<?xml version="1.0" encoding="utf-8"?>
<!-- Generator: Adobe Illustrator 26.4.1, SVG Export Plug-In . SVG Version: 6.00 Build 0)  -->
<svg version="1.1" id="Layer_1" xmlns="http://www.w3.org/2000/svg" xmlns:xlink="http://www.w3.org/1999/xlink" x="0px" y="0px"
	 viewBox="0 0 17 22.75" style="enable-background:new 0 0 17 22.75;" xml:space="preserve">
<style type="text/css">
	.st0{fill:#2C2628;}
	.st1{fill:none;stroke:#2C2628;stroke-width:1.5;stroke-miterlimit:10;}
	.st2{fill:#FFFFFF;}
</style>
<path class="st0" d="M16.35,0H1.95C0.87,0,0,0.76,0,1.7V17.1v3.3l2.58-1.6h13.77c0.36,0,0.65-0.25,0.65-0.57V0.57
	C17,0.25,16.71,0,16.35,0z"/>
<path class="st1" d="M14.96,20.4c0-0.88,0.91-1.6,2.04-1.6H2.79c-1.13,0-2.04,0.72-2.04,1.6c0,0.88,0.91,1.6,2.04,1.6H17
	C15.87,22,14.96,21.28,14.96,20.4z"/>
<path class="st2" d="M13.31,4.54H4.33c-0.36,0-0.65-0.29-0.65-0.65V3.71c0-0.36,0.29-0.65,0.65-0.65h8.98
	c0.36,0,0.65,0.29,0.65,0.65v0.18C13.96,4.24,13.67,4.54,13.31,4.54z"/>
<path class="st2" d="M13.31,8.12H4.33c-0.36,0-0.65-0.29-0.65-0.65V7.29c0-0.36,0.29-0.65,0.65-0.65h8.98
	c0.36,0,0.65,0.29,0.65,0.65v0.18C13.96,7.83,13.67,8.12,13.31,8.12z"/>
</svg>
