<?xml version="1.0" encoding="utf-8"?>
<!-- Generator: Adobe Illustrator 26.4.1, SVG Export Plug-In . SVG Version: 6.00 Build 0)  -->
<svg version="1.1" id="Layer_1" xmlns="http://www.w3.org/2000/svg" xmlns:xlink="http://www.w3.org/1999/xlink" x="0px" y="0px"
	 viewBox="0 0 22 22" style="enable-background:new 0 0 22 22;" xml:space="preserve">
<style type="text/css">
	.st0{fill:#2C2628;}
</style>
<path class="st0" d="M21.59,8.84l-9.85-8.56C11.53,0.09,11.26,0,11,0c-0.26,0-0.53,0.09-0.74,0.28L0.41,8.84
	c-0.37,0.32-0.5,0.84-0.33,1.3c0.17,0.46,0.6,0.77,1.08,0.77h2.63v9.91c0,0.65,0.51,1.18,1.15,1.18h3.21c0-0.03,0-0.05,0-0.08v-4.78
	c0-0.65,0.51-1.18,1.15-1.18h3.44c0.63,0,1.15,0.53,1.15,1.18v4.78c0,0.03,0,0.05,0,0.08h3.21c0.63,0,1.15-0.53,1.15-1.18v-9.91
	h2.63c0.48,0,0.91-0.31,1.08-0.77C22.1,9.68,21.96,9.16,21.59,8.84z"/>
</svg>
