<?xml version="1.0" encoding="utf-8"?>
<!-- Generator: Adobe Illustrator 26.4.1, SVG Export Plug-In . SVG Version: 6.00 Build 0)  -->
<svg version="1.1" id="Layer_1" xmlns="http://www.w3.org/2000/svg" xmlns:xlink="http://www.w3.org/1999/xlink" x="0px" y="0px"
	 viewBox="0 0 22 22" style="enable-background:new 0 0 22 22;" xml:space="preserve">
<style type="text/css">
	.st0{fill:#2C2628;}
	.st1{fill:#FFFFFF;}
</style>
<circle class="st0" cx="11" cy="11" r="11"/>
<g>
	<path class="st1" d="M11,16L11,16c-0.55,0-1-0.45-1-1v-5c0-0.55,0.45-1,1-1h0c0.55,0,1,0.45,1,1v5C12,15.55,11.55,16,11,16z"/>
	<path class="st1" d="M12,10L12,10c0,0.55-0.45,1-1,1h-1c-0.55,0-1-0.45-1-1v0c0-0.55,0.45-1,1-1h1C11.55,9,12,9.45,12,10z"/>
	<path class="st1" d="M13.5,15L13.5,15c0,0.55-0.45,1-1,1h-3c-0.55,0-1-0.45-1-1v0c0-0.55,0.45-1,1-1h3C13.05,14,13.5,14.45,13.5,15
		z"/>
	<circle class="st1" cx="11" cy="6.78" r="1.25"/>
</g>
</svg>
