<?xml version="1.0" encoding="utf-8"?>
<!-- Generator: Adobe Illustrator 26.4.1, SVG Export Plug-In . SVG Version: 6.00 Build 0)  -->
<svg version="1.1" id="Layer_1" xmlns="http://www.w3.org/2000/svg" xmlns:xlink="http://www.w3.org/1999/xlink" x="0px" y="0px"
	 viewBox="0 0 22 15" style="enable-background:new 0 0 22 15;" xml:space="preserve">
<style type="text/css">
	.st0{fill:#2C2628;}
</style>
<path class="st0" d="M21,0H1C0.45,0,0,0.45,0,1v13c0,0.55,0.45,1,1,1h20c0.55,0,1-0.45,1-1V1C22,0.45,21.55,0,21,0z M1.86,5.92
	c0-0.28,0.22-0.5,0.5-0.5h3.07c0.28,0,0.5,0.22,0.5,0.5v1.93c0,0.28-0.22,0.5-0.5,0.5H2.36c-0.28,0-0.5-0.22-0.5-0.5V5.92z
	 M14.27,12.28c0,0.28-0.22,0.5-0.5,0.5H2.36c-0.28,0-0.5-0.22-0.5-0.5v-0.46c0-0.28,0.22-0.5,0.5-0.5h11.41c0.28,0,0.5,0.22,0.5,0.5
	V12.28z M20.02,10.06c0,0.28-0.22,0.5-0.5,0.5H2.36c-0.28,0-0.5-0.22-0.5-0.5V9.6c0-0.28,0.22-0.5,0.5-0.5h17.16
	c0.28,0,0.5,0.22,0.5,0.5V10.06z">
	<animate attributeName="fill" values="#2C2628; #4B5D73; #2C2628;" dur="4s" repeatCount="indefinite"/>
	</path>
</svg>
